<svg xmlns="http://www.w3.org/2000/svg" viewBox="0 0 640 360" role="img" aria-labelledby="title desc">
  <title id="title">Silver ultrabook laptop</title>
  <desc id="desc">A slim silver laptop with a teal display on a soft workspace background.</desc>
  <defs>
    <linearGradient id="bg" x1="0" y1="0" x2="1" y2="1">
      <stop offset="0" stop-color="#f4faf8"/>
      <stop offset="1" stop-color="#e7eef5"/>
    </linearGradient>
    <linearGradient id="display" x1="0" y1="0" x2="1" y2="1">
      <stop offset="0" stop-color="#088178"/>
      <stop offset="1" stop-color="#78d8ce"/>
    </linearGradient>
    <filter id="shadow" x="-20%" y="-20%" width="140%" height="150%">
      <feDropShadow dx="0" dy="20" stdDeviation="20" flood-color="#183330" flood-opacity="0.18"/>
    </filter>
  </defs>
  <rect width="640" height="360" rx="26" fill="url(#bg)"/>
  <circle cx="126" cy="96" r="82" fill="#088178" opacity="0.08"/>
  <circle cx="520" cy="268" r="112" fill="#5d6fe8" opacity="0.08"/>
  <g filter="url(#shadow)" transform="translate(106 62)">
    <rect x="64" y="0" width="300" height="190" rx="18" fill="#27313d"/>
    <rect x="82" y="18" width="264" height="154" rx="8" fill="url(#display)"/>
    <path d="M0 212h428l-43 50H43z" fill="#d6dde4"/>
    <path d="M43 262h342c-14 15-33 24-55 24H98c-22 0-41-9-55-24z" fill="#b8c3ce"/>
    <path d="M182 225h64l13 16h-90z" fill="#a8b2bd"/>
    <path d="M111 66c66-42 150-42 216 0v106H111z" fill="#ffffff" opacity="0.14"/>
  </g>
  <g fill="none" stroke="#088178" stroke-linecap="round" stroke-width="7" opacity="0.45">
    <path d="M92 287h72"/>
    <path d="M474 77h74"/>
    <path d="M486 105h46"/>
  </g>
</svg>
